<?xml version="1.0" encoding="utf-8"?>
<!-- Generator: Adobe Illustrator 24.0.1, SVG Export Plug-In . SVG Version: 6.00 Build 0)  -->
<svg version="1.1" id="Layer_1" xmlns="http://www.w3.org/2000/svg" xmlns:xlink="http://www.w3.org/1999/xlink" x="0px" y="0px"
	 viewBox="0 0 100 100" style="enable-background:new 0 0 100 100;" xml:space="preserve">
<style type="text/css">
	.st0{fill-rule:evenodd;clip-rule:evenodd;fill:#101010;stroke:#101010;stroke-width:3;stroke-miterlimit:10;}
</style>
<path class="st0" d="M17.5,47.5H50c1.4,0,2.5,1.1,2.5,2.5s-1.1,2.5-2.5,2.5H17.5c-1.4,0-2.5-1.1-2.5-2.5S16.1,47.5,17.5,47.5z"/>
<path class="st0" d="M17.5,25h65c1.4,0,2.5,1.1,2.5,2.5S83.9,30,82.5,30h-65c-1.4,0-2.5-1.1-2.5-2.5S16.1,25,17.5,25z"/>
<path class="st0" d="M17.5,70c-1.4,0-2.5,1.1-2.5,2.5s1.1,2.5,2.5,2.5h65c1.4,0,2.5-1.1,2.5-2.5S83.9,70,82.5,70H17.5z"/>
</svg>
