<?xml version="1.0" encoding="utf-8"?>
<!-- Generator: Adobe Illustrator 24.0.1, SVG Export Plug-In . SVG Version: 6.00 Build 0)  -->
<svg version="1.1" id="Capa_1" xmlns="http://www.w3.org/2000/svg" xmlns:xlink="http://www.w3.org/1999/xlink" x="0px" y="0px"
	 viewBox="0 0 112.2 112.2" style="enable-background:new 0 0 112.2 112.2;" xml:space="preserve">
<style type="text/css">
	.st0{fill:#101010;}
</style>
<g>
	<path class="st0" d="M87.3,40.2c-25.5,0-25.5,25.4-25.5,25.5c0,0-1.7,25.4,25.4,25.4c0,0,22.8,1.4,22.8-17.6H98.3
		c0,0,0.3,7.1-10.7,7.1c0,0-11.7,0.8-11.7-11.5h34.5C110.4,69,114.2,40.1,87.3,40.2z M75.9,60.1c0,0,1.4-10.2,11.7-10.2
		s10.1,10.2,10.2,10.2H75.9z"/>
	<path class="st0" d="M56.7,40.8c0-11.8-8.2-17.6-18.7-17.6H3.3v66.6H38c0,0,21.1,0.6,21.1-19.7c0,0,0.9-16.5-12.4-16.7
		C46.6,53.4,56.7,52.8,56.7,40.8z M18.6,35H38c0,0,4.7,0,4.7,6.9s-2.8,7.9-6,7.9H18.6V35z M37,77.9H18.6V60.1H38c0,0,7.1,0,7.1,9.1
		C45.1,76.9,39.7,77.9,37,77.9z"/>
	<rect x="72.9" y="27.1" class="st0" width="27.4" height="8.2"/>
</g>
</svg>
